<svg width="79" height="16" viewBox="0 0 79 16" fill="none" xmlns="http://www.w3.org/2000/svg">
<path d="M0.9 15C0.833333 15 0.8 14.9667 0.8 14.9L0.84 1.16C0.84 1.10667 0.866667 1.08 0.92 1.08L4.66 1.06C5.39333 1.04667 6.06 1.22 6.66 1.58C7.27333 1.94 7.76 2.42667 8.12 3.04C8.48 3.64 8.66 4.30667 8.66 5.04V10.78C8.66 11.5533 8.47333 12.26 8.1 12.9C7.72667 13.5267 7.22667 14.0267 6.6 14.4C5.97333 14.7733 5.26667 14.9667 4.48 14.98L0.9 15ZM3.24 12.54H4.48C4.97333 12.54 5.38667 12.3667 5.72 12.02C6.06667 11.6733 6.24 11.26 6.24 10.78V5.02C6.24 4.59333 6.08 4.22667 5.76 3.92C5.45333 3.6 5.08667 3.44667 4.66 3.46L3.26 3.48L3.24 12.54ZM10.3136 15C10.2603 15 10.2336 14.9667 10.2336 14.9L10.2736 1.16C10.2736 1.10667 10.3003 1.08 10.3536 1.08H14.3936C15.1136 1.08 15.7736 1.26 16.3736 1.62C16.9869 1.96667 17.4736 2.44 17.8336 3.04C18.1936 3.62667 18.3736 4.29333 18.3736 5.04C18.3736 5.53333 18.3003 5.98 18.1536 6.38C18.0069 6.76667 17.8336 7.1 17.6336 7.38C17.4336 7.64667 17.2536 7.84667 17.0936 7.98C17.8136 8.78 18.1736 9.72 18.1736 10.8L18.1936 14.9C18.1936 14.9667 18.1603 15 18.0936 15H15.8336C15.7803 15 15.7536 14.98 15.7536 14.94V10.8C15.7536 10.32 15.5803 9.90667 15.2336 9.56C14.9003 9.2 14.4869 9.02 13.9936 9.02H12.6736L12.6536 14.9C12.6536 14.9667 12.6269 15 12.5736 15H10.3136ZM12.6736 6.62H14.3936C14.8069 6.62 15.1736 6.46667 15.4936 6.16C15.8136 5.85333 15.9736 5.48 15.9736 5.04C15.9736 4.61333 15.8136 4.24667 15.4936 3.94C15.1869 3.63333 14.8203 3.48 14.3936 3.48H12.6736V6.62ZM19.982 15C19.9154 15 19.882 14.9667 19.882 14.9L19.902 1.16C19.902 1.10667 19.9287 1.08 19.982 1.08H22.222C22.2754 1.08 22.302 1.10667 22.302 1.16L22.322 14.9C22.322 14.9667 22.2954 15 22.242 15H19.982ZM26.3213 15C26.2679 15 26.2346 14.9667 26.2212 14.9L23.4613 1.16C23.4479 1.10667 23.4746 1.08 23.5413 1.08H25.8013C25.8546 1.08 25.8879 1.10667 25.9013 1.16L27.5413 10.32L29.1413 1.16C29.1546 1.10667 29.1879 1.08 29.2413 1.08H31.4813C31.5479 1.08 31.5746 1.10667 31.5613 1.16L28.8413 14.9C28.8279 14.9667 28.7946 15 28.7413 15H26.3213ZM32.8136 15C32.7603 15 32.7336 14.9667 32.7336 14.9L32.7536 1.16C32.7536 1.10667 32.7803 1.08 32.8336 1.08H39.2536C39.3069 1.08 39.3336 1.11333 39.3336 1.18V3.42C39.3336 3.47333 39.3069 3.5 39.2536 3.5H35.1536V6.62H39.2536C39.3069 6.62 39.3336 6.64667 39.3336 6.7L39.3536 8.96C39.3536 9.01333 39.3269 9.04 39.2736 9.04H35.1536V12.54H39.2736C39.3269 12.54 39.3536 12.5733 39.3536 12.64V14.92C39.3536 14.9733 39.3269 15 39.2736 15H32.8136ZM44.1808 15C44.1274 15 44.1008 14.9667 44.1008 14.9L44.1408 1.16C44.1408 1.10667 44.1674 1.08 44.2208 1.08H46.6608C46.7141 1.08 46.7608 1.10667 46.8008 1.16L48.6208 3.8L50.4408 1.16C50.4808 1.10667 50.5274 1.08 50.5808 1.08H53.0408C53.0941 1.08 53.1208 1.10667 53.1208 1.16L53.1608 14.9C53.1608 14.9667 53.1341 15 53.0808 15H50.8208C50.7674 15 50.7408 14.9667 50.7408 14.9L50.7208 4.7L48.6208 7.74L46.5408 4.7L46.5208 14.9C46.5208 14.9667 46.4941 15 46.4408 15H44.1808ZM58.543 15.2C57.823 15.2 57.163 15.02 56.563 14.66C55.9763 14.2867 55.503 13.8 55.143 13.2C54.783 12.5867 54.603 11.9133 54.603 11.18L54.623 4.84C54.623 4.10667 54.7963 3.44 55.143 2.84C55.503 2.24 55.983 1.76 56.583 1.4C57.183 1.04 57.8363 0.86 58.543 0.86C59.263 0.86 59.9163 1.04 60.503 1.4C61.0896 1.76 61.5563 2.24 61.903 2.84C62.263 3.44 62.443 4.10667 62.443 4.84L62.463 11.18C62.463 11.9133 62.283 12.5867 61.923 13.2C61.5763 13.8 61.103 14.2867 60.503 14.66C59.9163 15.02 59.263 15.2 58.543 15.2ZM58.543 12.78C58.943 12.78 59.2896 12.62 59.583 12.3C59.8896 11.9667 60.043 11.5933 60.043 11.18L60.023 4.84C60.023 4.4 59.883 4.02667 59.603 3.72C59.323 3.41333 58.9696 3.26 58.543 3.26C58.1296 3.26 57.7763 3.41333 57.483 3.72C57.1896 4.01333 57.043 4.38667 57.043 4.84V11.18C57.043 11.62 57.1896 12 57.483 12.32C57.7763 12.6267 58.1296 12.78 58.543 12.78ZM65.7297 15C65.6764 15 65.6497 14.9667 65.6497 14.9V3.5H63.0497C62.983 3.5 62.9497 3.46667 62.9497 3.4L62.9697 1.16C62.9697 1.10667 62.9964 1.08 63.0497 1.08H70.6497C70.7164 1.08 70.7497 1.10667 70.7497 1.16V3.4C70.7497 3.46667 70.723 3.5 70.6697 3.5H68.0497L68.0697 14.9C68.0697 14.9667 68.043 15 67.9897 15H65.7297ZM74.9883 15.2C74.2683 15.2 73.6083 15.02 73.0083 14.66C72.4216 14.2867 71.9483 13.8 71.5883 13.2C71.2283 12.5867 71.0483 11.9133 71.0483 11.18L71.0683 4.84C71.0683 4.10667 71.2416 3.44 71.5883 2.84C71.9483 2.24 72.4283 1.76 73.0283 1.4C73.6283 1.04 74.2816 0.86 74.9883 0.86C75.7083 0.86 76.3616 1.04 76.9483 1.4C77.5349 1.76 78.0016 2.24 78.3483 2.84C78.7083 3.44 78.8883 4.10667 78.8883 4.84L78.9083 11.18C78.9083 11.9133 78.7283 12.5867 78.3683 13.2C78.0216 13.8 77.5483 14.2867 76.9483 14.66C76.3616 15.02 75.7083 15.2 74.9883 15.2ZM74.9883 12.78C75.3883 12.78 75.7349 12.62 76.0283 12.3C76.3349 11.9667 76.4883 11.5933 76.4883 11.18L76.4683 4.84C76.4683 4.4 76.3283 4.02667 76.0483 3.72C75.7683 3.41333 75.4149 3.26 74.9883 3.26C74.5749 3.26 74.2216 3.41333 73.9283 3.72C73.6349 4.01333 73.4883 4.38667 73.4883 4.84V11.18C73.4883 11.62 73.6349 12 73.9283 12.32C74.2216 12.6267 74.5749 12.78 74.9883 12.78Z" fill="#2F3035"/>
</svg>
